<svg aria-hidden="true" style="width:0;height:0;position:absolute;overflow:hidden" xmlns="http://www.w3.org/2000/svg"><defs><symbol id="icon-kropki_tablet" viewBox="0 0 356 32"><path fill="#f8d24e" style="fill:var(--color1,#f8d24e)" d="M306.022 29.57c0 1.021-.832 1.849-1.858 1.849s-1.858-.828-1.858-1.849.832-1.849 1.858-1.849 1.858.828 1.858 1.849zM309.737 27.259c0 1.021-.832 1.849-1.858 1.849s-1.858-.828-1.858-1.849.832-1.849 1.858-1.849 1.858.828 1.858 1.849zM314.38 24.484c0 1.021-.832 1.849-1.858 1.849s-1.858-.828-1.858-1.849.832-1.849 1.858-1.849 1.858.828 1.858 1.849zM318.095 22.173c0 1.021-.832 1.849-1.858 1.849s-1.858-.828-1.858-1.849.832-1.849 1.858-1.849 1.858.828 1.858 1.849zM315.773 28.646c0 1.021-.832 1.849-1.858 1.849s-1.858-.828-1.858-1.849.832-1.849 1.858-1.849 1.858.828 1.858 1.849zM319.489 26.334c0 1.021-.832 1.849-1.858 1.849s-1.858-.828-1.858-1.849.832-1.849 1.858-1.849 1.858.828 1.858 1.849zM324.132 23.56c0 1.021-.832 1.849-1.858 1.849s-1.858-.828-1.858-1.849.832-1.849 1.858-1.849 1.858.828 1.858 1.849zM327.847 21.248c0 1.021-.832 1.849-1.858 1.849s-1.858-.828-1.858-1.849.832-1.849 1.858-1.849 1.858.828 1.858 1.849zM324.132 27.721c0 1.021-.832 1.849-1.858 1.849s-1.858-.828-1.858-1.849.832-1.849 1.858-1.849 1.858.828 1.858 1.849zM327.847 25.409c0 1.021-.832 1.849-1.858 1.849s-1.858-.828-1.858-1.849.832-1.849 1.858-1.849 1.858.828 1.858 1.849zM332.491 22.635c0 1.021-.832 1.849-1.858 1.849s-1.858-.828-1.858-1.849.832-1.849 1.858-1.849 1.858.828 1.858 1.849zM336.206 20.323c0 1.021-.832 1.849-1.858 1.849s-1.858-.828-1.858-1.849.832-1.849 1.858-1.849 1.858.828 1.858 1.849zM332.491 26.334c0 1.021-.832 1.849-1.858 1.849s-1.858-.828-1.858-1.849.832-1.849 1.858-1.849 1.858.828 1.858 1.849zM336.206 24.022c0 1.021-.832 1.849-1.858 1.849s-1.858-.828-1.858-1.849.832-1.849 1.858-1.849 1.858.828 1.858 1.849zM340.85 21.248c0 1.021-.832 1.849-1.858 1.849s-1.858-.828-1.858-1.849.832-1.849 1.858-1.849 1.858.828 1.858 1.849zM344.565 18.936c0 1.021-.832 1.849-1.858 1.849s-1.858-.828-1.858-1.849.832-1.849 1.858-1.849 1.858.828 1.858 1.849zM334.813 29.57c0 1.021-.832 1.849-1.858 1.849s-1.858-.828-1.858-1.849.832-1.849 1.858-1.849 1.858.828 1.858 1.849zM338.528 27.259c0 1.021-.832 1.849-1.858 1.849s-1.858-.828-1.858-1.849.832-1.849 1.858-1.849 1.858.828 1.858 1.849zM343.636 30.033c0 1.021-.832 1.849-1.858 1.849s-1.858-.828-1.858-1.849.832-1.849 1.858-1.849 1.858.828 1.858 1.849zM343.171 24.484c0 1.021-.832 1.849-1.858 1.849s-1.858-.828-1.858-1.849.832-1.849 1.858-1.849 1.858.828 1.858 1.849zM348.279 27.259c0 1.021-.832 1.849-1.858 1.849s-1.858-.828-1.858-1.849.832-1.849 1.858-1.849 1.858.828 1.858 1.849zM352.459 30.033c0 1.021-.832 1.849-1.858 1.849s-1.858-.828-1.858-1.849.832-1.849 1.858-1.849 1.858.828 1.858 1.849zM346.887 22.173c0 1.021-.832 1.849-1.858 1.849s-1.858-.828-1.858-1.849.832-1.849 1.858-1.849 1.858.828 1.858 1.849zM352.459 24.947c0 1.021-.832 1.849-1.858 1.849s-1.858-.828-1.858-1.849.832-1.849 1.858-1.849 1.858.828 1.858 1.849zM356.174 27.721c0 1.021-.832 1.849-1.858 1.849s-1.858-.828-1.858-1.849.832-1.849 1.858-1.849 1.858.828 1.858 1.849zM288.376 10.151c0 1.021-.832 1.849-1.858 1.849s-1.858-.828-1.858-1.849.832-1.849 1.858-1.849 1.858.828 1.858 1.849zM292.091 7.839c0 1.021-.832 1.849-1.858 1.849s-1.858-.828-1.858-1.849.832-1.849 1.858-1.849 1.858.828 1.858 1.849zM296.734 5.065c0 1.021-.832 1.849-1.858 1.849s-1.858-.828-1.858-1.849.832-1.849 1.858-1.849 1.858.828 1.858 1.849zM300.449 2.753c0 1.021-.832 1.849-1.858 1.849s-1.858-.828-1.858-1.849.832-1.849 1.858-1.849 1.858.828 1.858 1.849zM280.946 9.689c0 1.021-.832 1.849-1.858 1.849s-1.858-.828-1.858-1.849.832-1.849 1.858-1.849 1.858.828 1.858 1.849zM284.661 7.377c0 1.021-.832 1.849-1.858 1.849s-1.858-.828-1.858-1.849.832-1.849 1.858-1.849 1.858.828 1.858 1.849zM289.304 4.603c0 1.021-.832 1.849-1.858 1.849s-1.858-.828-1.858-1.849.832-1.849 1.858-1.849 1.858.828 1.858 1.849zM293.019 2.291c0 1.021-.832 1.849-1.858 1.849s-1.858-.828-1.858-1.849.832-1.849 1.858-1.849 1.858.828 1.858 1.849zM297.198 29.57c0 1.021-.832 1.849-1.858 1.849s-1.858-.828-1.858-1.849.832-1.849 1.858-1.849 1.858.828 1.858 1.849zM300.914 27.259c0 1.021-.832 1.849-1.858 1.849s-1.858-.828-1.858-1.849.832-1.849 1.858-1.849 1.858.828 1.858 1.849zM305.557 24.484c0 1.021-.832 1.849-1.858 1.849s-1.858-.828-1.858-1.849.832-1.849 1.858-1.849 1.858.828 1.858 1.849zM309.272 22.173c0 1.021-.832 1.849-1.858 1.849s-1.858-.828-1.858-1.849.832-1.849 1.858-1.849 1.858.828 1.858 1.849zM292.555 28.183c0 1.021-.832 1.849-1.858 1.849s-1.858-.828-1.858-1.849.832-1.849 1.858-1.849 1.858.828 1.858 1.849z"/><path fill="#f8d24e" style="fill:var(--color1,#f8d24e)" d="M296.27 25.872c0 1.021-.832 1.849-1.858 1.849s-1.858-.828-1.858-1.849.832-1.849 1.858-1.849 1.858.828 1.858 1.849zM300.914 23.097c0 1.021-.832 1.849-1.858 1.849s-1.858-.828-1.858-1.849.832-1.849 1.858-1.849 1.858.828 1.858 1.849zM304.628 20.785c0 1.021-.832 1.849-1.858 1.849s-1.858-.828-1.858-1.849.832-1.849 1.858-1.849 1.858.828 1.858 1.849zM294.413 21.71c0 1.021-.832 1.849-1.858 1.849s-1.858-.828-1.858-1.849.832-1.849 1.858-1.849 1.858.828 1.858 1.849zM298.127 19.398c0 1.021-.832 1.849-1.858 1.849s-1.858-.828-1.858-1.849.832-1.849 1.858-1.849 1.858.828 1.858 1.849zM302.771 16.624c0 1.021-.832 1.849-1.858 1.849s-1.858-.828-1.858-1.849.832-1.849 1.858-1.849 1.858.828 1.858 1.849zM306.486 14.312c0 1.021-.832 1.849-1.858 1.849s-1.858-.828-1.858-1.849.832-1.849 1.858-1.849 1.858.828 1.858 1.849zM294.413 11.076c0 1.021-.832 1.849-1.858 1.849s-1.858-.828-1.858-1.849.832-1.849 1.858-1.849 1.858.828 1.858 1.849zM298.127 8.764c0 1.021-.832 1.849-1.858 1.849s-1.858-.828-1.858-1.849.832-1.849 1.858-1.849 1.858.828 1.858 1.849zM302.771 5.99c0 1.021-.832 1.849-1.858 1.849s-1.858-.828-1.858-1.849.832-1.849 1.858-1.849 1.858.828 1.858 1.849zM306.486 3.678c0 1.021-.832 1.849-1.858 1.849s-1.858-.828-1.858-1.849.832-1.849 1.858-1.849 1.858.828 1.858 1.849zM293.484 17.087c0 1.021-.832 1.849-1.858 1.849s-1.858-.828-1.858-1.849.832-1.849 1.858-1.849 1.858.828 1.858 1.849zM297.198 14.775c0 1.021-.832 1.849-1.858 1.849s-1.858-.828-1.858-1.849.832-1.849 1.858-1.849 1.858.828 1.858 1.849zM301.842 12.001c0 1.021-.832 1.849-1.858 1.849s-1.858-.828-1.858-1.849.832-1.849 1.858-1.849 1.858.828 1.858 1.849zM305.557 9.689c0 1.021-.832 1.849-1.858 1.849s-1.858-.828-1.858-1.849.832-1.849 1.858-1.849 1.858.828 1.858 1.849zM274.909 8.302c0 1.021-.728 1.849-1.625 1.849s-1.625-.828-1.625-1.849.728-1.849 1.625-1.849 1.625.828 1.625 1.849zM278.624 5.99c0 1.021-.728 1.849-1.625 1.849s-1.625-.828-1.625-1.849.728-1.849 1.625-1.849 1.625.828 1.625 1.849zM283.267 3.216c0 1.021-.728 1.849-1.625 1.849s-1.625-.828-1.625-1.849.728-1.849 1.625-1.849 1.625.828 1.625 1.849zM281.178 10.151c.898 0 1.625-.828 1.625-1.849s-.728-1.849-1.625-1.849-1.625.828-1.625 1.849.728 1.849 1.625 1.849zM3.715 27.362a1.856 1.856 0 1 1-3.712-.002 1.856 1.856 0 0 1 3.712.002zM7.43 25.043a1.856 1.856 0 1 1-3.712-.002 1.856 1.856 0 0 1 3.712.002zM12.074 22.261a1.856 1.856 0 1 1-3.712-.002 1.856 1.856 0 0 1 3.712.002zM15.789 19.942a1.856 1.856 0 1 1-3.712-.002 1.856 1.856 0 0 1 3.712.002zM26.005 28.29c0 1.025-.832 1.855-1.858 1.855s-1.858-.831-1.858-1.855c0-1.025.832-1.855 1.858-1.855s1.858.831 1.858 1.855zM29.72 25.971c0 1.025-.832 1.855-1.858 1.855s-1.858-.831-1.858-1.855c0-1.025.832-1.855 1.858-1.855s1.858.831 1.858 1.855zM34.364 23.188c0 1.025-.832 1.855-1.858 1.855s-1.858-.831-1.858-1.855c0-1.025.832-1.855 1.858-1.855s1.858.831 1.858 1.855zM38.079 20.87c0 1.025-.832 1.855-1.858 1.855s-1.858-.831-1.858-1.855c0-1.025.832-1.855 1.858-1.855s1.858.831 1.858 1.855zM34.364 26.899c0 1.025-.728 1.855-1.625 1.855s-1.625-.831-1.625-1.855c0-1.025.728-1.855 1.625-1.855s1.625.831 1.625 1.855z"/><path fill="#f8d24e" style="fill:var(--color1,#f8d24e)" d="M38.078 24.58c0 1.025-.728 1.855-1.625 1.855s-1.625-.831-1.625-1.855c0-1.025.728-1.855 1.625-1.855s1.625.831 1.625 1.855zM42.258 22.261c0 1.025-.728 1.855-1.625 1.855s-1.625-.831-1.625-1.855c0-1.025.728-1.855 1.625-1.855s1.625.831 1.625 1.855zM46.437 19.942c0 1.025-.728 1.855-1.625 1.855s-1.625-.831-1.625-1.855c0-1.025.728-1.855 1.625-1.855s1.625.831 1.625 1.855zM51.081 16.232c0 1.025-.728 1.855-1.625 1.855s-1.625-.831-1.625-1.855c0-1.025.728-1.855 1.625-1.855s1.625.831 1.625 1.855zM41.329 18.087c0 1.025-.728 1.855-1.625 1.855s-1.625-.831-1.625-1.855c0-1.025.728-1.855 1.625-1.855s1.625.831 1.625 1.855zM17.646 28.29a1.856 1.856 0 1 1-3.712-.002 1.856 1.856 0 0 1 3.712.002zM21.361 25.971a1.858 1.858 0 0 1-3.715 0c0-1.025.832-1.855 1.858-1.855s1.858.831 1.858 1.855zM26.005 23.188c0 1.025-.832 1.855-1.858 1.855s-1.858-.831-1.858-1.855c0-1.025.832-1.855 1.858-1.855s1.858.831 1.858 1.855zM29.72 20.87c0 1.025-.832 1.855-1.858 1.855s-1.858-.831-1.858-1.855c0-1.025.832-1.855 1.858-1.855s1.858.831 1.858 1.855zM10.216 27.826a1.856 1.856 0 1 1-3.712-.002 1.856 1.856 0 0 1 3.712.002zM13.931 25.507a1.856 1.856 0 1 1-3.712-.002 1.856 1.856 0 0 1 3.712.002zM18.575 22.725c0 1.025-.832 1.855-1.858 1.855a1.856 1.856 0 1 1 0-3.71c1.025 0 1.858.831 1.858 1.855zM22.29 20.406c0 1.025-.832 1.855-1.858 1.855s-1.858-.831-1.858-1.855c0-1.025.832-1.855 1.858-1.855s1.858.831 1.858 1.855z"/></symbol><symbol id="icon-kropki_mobile" viewBox="0 0 205 32"><path fill="#f8d24e" style="fill:var(--color1,#f8d24e)" d="M156.54 29.616c0 .982-.745 1.778-1.664 1.778s-1.664-.796-1.664-1.778.745-1.778 1.664-1.778 1.664.796 1.664 1.778zM160.146 27.245c0 .982-.745 1.778-1.664 1.778s-1.664-.796-1.664-1.778.745-1.778 1.664-1.778 1.664.796 1.664 1.778zM164.305 24.578c0 .982-.745 1.778-1.664 1.778s-1.664-.796-1.664-1.778.745-1.778 1.664-1.778 1.664.796 1.664 1.778zM168.189 22.206c0 .982-.745 1.778-1.664 1.778s-1.664-.796-1.664-1.778.745-1.778 1.664-1.778 1.664.796 1.664 1.778zM165.969 28.431c0 .982-.745 1.778-1.664 1.778s-1.664-.796-1.664-1.778.745-1.778 1.664-1.778 1.664.796 1.664 1.778zM169.575 26.06c0 .982-.745 1.778-1.664 1.778s-1.664-.796-1.664-1.778.745-1.778 1.664-1.778 1.664.796 1.664 1.778zM173.735 23.392c0 .982-.745 1.778-1.664 1.778s-1.664-.796-1.664-1.778.745-1.778 1.664-1.778 1.664.796 1.664 1.778zM177.619 21.021c0 .982-.745 1.778-1.664 1.778s-1.664-.796-1.664-1.778.745-1.778 1.664-1.778 1.664.796 1.664 1.778zM174.014 27.542c0 .982-.745 1.778-1.664 1.778s-1.664-.796-1.664-1.778.745-1.778 1.664-1.778 1.664.796 1.664 1.778zM177.619 25.171c0 .982-.745 1.778-1.664 1.778s-1.664-.796-1.664-1.778.745-1.778 1.664-1.778 1.664.796 1.664 1.778zM181.779 22.503c0 .982-.745 1.778-1.664 1.778s-1.664-.796-1.664-1.778.745-1.778 1.664-1.778 1.664.796 1.664 1.778zM185.662 20.132c0 .982-.745 1.778-1.664 1.778s-1.664-.796-1.664-1.778.745-1.778 1.664-1.778 1.664.796 1.664 1.778zM181.778 26.356c0 .982-.745 1.778-1.664 1.778s-1.664-.796-1.664-1.778.745-1.778 1.664-1.778 1.664.796 1.664 1.778zM185.383 23.985c0 .982-.745 1.778-1.664 1.778s-1.664-.796-1.664-1.778.745-1.778 1.664-1.778 1.664.796 1.664 1.778zM189.543 21.318c0 .982-.745 1.778-1.664 1.778s-1.664-.796-1.664-1.778.745-1.778 1.664-1.778 1.664.796 1.664 1.778zM193.427 18.947c0 .982-.745 1.778-1.664 1.778s-1.664-.796-1.664-1.778.745-1.778 1.664-1.778 1.664.796 1.664 1.778zM184.276 29.616c0 .982-.745 1.778-1.664 1.778s-1.664-.796-1.664-1.778.745-1.778 1.664-1.778 1.664.796 1.664 1.778zM187.882 27.245c0 .982-.745 1.778-1.664 1.778s-1.664-.796-1.664-1.778.745-1.778 1.664-1.778 1.664.796 1.664 1.778zM192.874 29.913c0 .982-.745 1.778-1.664 1.778s-1.664-.796-1.664-1.778.745-1.778 1.664-1.778 1.664.796 1.664 1.778zM192.042 24.578c0 .982-.745 1.778-1.664 1.778s-1.664-.796-1.664-1.778.745-1.778 1.664-1.778 1.664.796 1.664 1.778zM197.034 27.245c0 .982-.745 1.778-1.664 1.778s-1.664-.796-1.664-1.778.745-1.778 1.664-1.778 1.664.796 1.664 1.778zM200.918 29.913c0 .982-.745 1.778-1.664 1.778s-1.664-.796-1.664-1.778.745-1.778 1.664-1.778 1.664.796 1.664 1.778zM195.925 22.206c0 .982-.745 1.778-1.664 1.778s-1.664-.796-1.664-1.778.745-1.778 1.664-1.778 1.664.796 1.664 1.778zM200.918 24.874c0 .982-.745 1.778-1.664 1.778s-1.664-.796-1.664-1.778.745-1.778 1.664-1.778 1.664.796 1.664 1.778zM204.801 27.542c0 .982-.745 1.778-1.664 1.778s-1.664-.796-1.664-1.778.745-1.778 1.664-1.778 1.664.796 1.664 1.778zM139.622 10.055c0 .982-.745 1.778-1.664 1.778s-1.664-.796-1.664-1.778.745-1.778 1.664-1.778 1.664.796 1.664 1.778zM143.227 7.684c0 .982-.745 1.778-1.664 1.778s-1.664-.796-1.664-1.778.745-1.778 1.664-1.778 1.664.796 1.664 1.778zM147.388 5.016c0 .982-.745 1.778-1.664 1.778s-1.664-.796-1.664-1.778.745-1.778 1.664-1.778 1.664.796 1.664 1.778zM151.27 2.645c0 .982-.745 1.778-1.664 1.778s-1.664-.796-1.664-1.778.745-1.778 1.664-1.778 1.664.796 1.664 1.778zM132.687 9.758c0 .982-.745 1.778-1.664 1.778s-1.664-.796-1.664-1.778.745-1.778 1.664-1.778 1.664.796 1.664 1.778zM136.293 7.387c0 .982-.745 1.778-1.664 1.778s-1.664-.796-1.664-1.778.745-1.778 1.664-1.778 1.664.796 1.664 1.778zM140.453 4.72c0 .982-.745 1.778-1.664 1.778s-1.664-.796-1.664-1.778.745-1.778 1.664-1.778 1.664.796 1.664 1.778zM144.335 2.349c0 .982-.745 1.778-1.664 1.778s-1.664-.796-1.664-1.778.745-1.778 1.664-1.778 1.664.796 1.664 1.778zM148.219 29.616c0 .982-.745 1.778-1.664 1.778s-1.664-.796-1.664-1.778.745-1.778 1.664-1.778 1.664.796 1.664 1.778zM151.824 27.245c0 .982-.745 1.778-1.664 1.778s-1.664-.796-1.664-1.778.745-1.778 1.664-1.778 1.664.796 1.664 1.778zM155.984 24.578c0 .982-.745 1.778-1.664 1.778s-1.664-.796-1.664-1.778.745-1.778 1.664-1.778 1.664.796 1.664 1.778zM159.868 22.206c0 .982-.745 1.778-1.664 1.778s-1.664-.796-1.664-1.778.745-1.778 1.664-1.778 1.664.796 1.664 1.778zM143.781 27.838c0 .982-.745 1.778-1.664 1.778s-1.664-.796-1.664-1.778.745-1.778 1.664-1.778 1.664.796 1.664 1.778zM147.387 25.467c0 .982-.745 1.778-1.664 1.778s-1.664-.796-1.664-1.778.745-1.778 1.664-1.778 1.664.796 1.664 1.778zM151.547 22.8c0 .982-.745 1.778-1.664 1.778s-1.664-.796-1.664-1.778.745-1.778 1.664-1.778 1.664.796 1.664 1.778zM155.43 20.429c0 .982-.745 1.778-1.664 1.778s-1.664-.796-1.664-1.778.745-1.778 1.664-1.778 1.664.796 1.664 1.778zM145.446 21.614c0 .982-.745 1.778-1.664 1.778s-1.664-.796-1.664-1.778.745-1.778 1.664-1.778 1.664.796 1.664 1.778zM149.051 19.243c0 .982-.745 1.778-1.664 1.778s-1.664-.796-1.664-1.778.745-1.778 1.664-1.778 1.664.796 1.664 1.778zM153.212 16.575c0 .982-.745 1.778-1.664 1.778s-1.664-.796-1.664-1.778.745-1.778 1.664-1.778 1.664.796 1.664 1.778zM157.095 14.204c0 .982-.745 1.778-1.664 1.778s-1.664-.796-1.664-1.778.745-1.778 1.664-1.778 1.664.796 1.664 1.778zM145.446 11.24c0 .982-.745 1.778-1.664 1.778s-1.664-.796-1.664-1.778.745-1.778 1.664-1.778 1.664.796 1.664 1.778zM149.051 8.869c0 .982-.745 1.778-1.664 1.778s-1.664-.796-1.664-1.778.745-1.778 1.664-1.778 1.664.796 1.664 1.778zM153.212 6.202c0 .982-.745 1.778-1.664 1.778s-1.664-.796-1.664-1.778.745-1.778 1.664-1.778 1.664.796 1.664 1.778zM157.095 3.831c0 .982-.745 1.778-1.664 1.778s-1.664-.796-1.664-1.778.745-1.778 1.664-1.778 1.664.796 1.664 1.778zM144.613 16.872c0 .982-.745 1.778-1.664 1.778s-1.664-.796-1.664-1.778.745-1.778 1.664-1.778 1.664.796 1.664 1.778zM148.22 14.501c0 .982-.745 1.778-1.664 1.778s-1.664-.796-1.664-1.778.745-1.778 1.664-1.778 1.664.796 1.664 1.778zM152.379 11.833c0 .982-.745 1.778-1.664 1.778s-1.664-.796-1.664-1.778.745-1.778 1.664-1.778 1.664.796 1.664 1.778zM156.262 9.462c0 .982-.745 1.778-1.664 1.778s-1.664-.796-1.664-1.778.745-1.778 1.664-1.778 1.664.796 1.664 1.778zM127.14 8.276c0 .982-.745 1.778-1.664 1.778s-1.664-.796-1.664-1.778.745-1.778 1.664-1.778 1.664.796 1.664 1.778zM130.746 5.905c0 .982-.745 1.778-1.664 1.778s-1.664-.796-1.664-1.778.745-1.778 1.664-1.778 1.664.796 1.664 1.778zM134.906 3.238c0 .982-.745 1.778-1.664 1.778s-1.664-.796-1.664-1.778.745-1.778 1.664-1.778 1.664.796 1.664 1.778z"/><path fill="#f8d24e" style="fill:var(--color1,#f8d24e)" d="M132.964 10.055c.919 0 1.665-.796 1.665-1.778s-.746-1.778-1.665-1.778-1.664.796-1.664 1.778.745 1.778 1.664 1.778zM56.441 21.475c.141.985-.491 1.906-1.413 2.057s-1.784-.525-1.925-1.51c-.141-.985.491-1.906 1.413-2.057s1.784.525 1.925 1.51zM59.717 18.504c.141.985-.491 1.906-1.413 2.057s-1.784-.525-1.925-1.51c-.141-.985.491-1.906 1.413-2.057s1.784.525 1.925 1.51zM63.506 15.144c.141.985-.491 1.906-1.413 2.057s-1.784-.525-1.925-1.51c-.141-.985.491-1.906 1.413-2.057s1.784.525 1.925 1.51zM67.06 12.128c.141.985-.491 1.906-1.413 2.057s-1.784-.525-1.925-1.51c-.141-.985.491-1.906 1.413-2.057s1.784.525 1.925 1.51zM3.481 21.473c0 .997-.779 1.805-1.741 1.805s-1.741-.808-1.741-1.805c0-.997.779-1.805 1.741-1.805s1.741.808 1.741 1.805zM7.252 19.067c0 .997-.779 1.805-1.741 1.805s-1.741-.808-1.741-1.805c0-.997.779-1.805 1.741-1.805s1.741.808 1.741 1.805zM11.605 16.36c0 .997-.779 1.805-1.741 1.805s-1.741-.808-1.741-1.805c0-.997.779-1.805 1.741-1.805s1.741.808 1.741 1.805zM15.666 13.953c0 .997-.779 1.805-1.741 1.805s-1.741-.808-1.741-1.805c0-.997.779-1.805 1.741-1.805s1.741.808 1.741 1.805zM5.223 25.984c0 .997-.779 1.805-1.741 1.805s-1.741-.808-1.741-1.805c0-.997.779-1.805 1.741-1.805s1.741.808 1.741 1.805zM8.994 23.578c0 .997-.779 1.805-1.741 1.805s-1.741-.808-1.741-1.805c0-.997.779-1.805 1.741-1.805s1.741.808 1.741 1.805zM13.346 20.871c0 .997-.779 1.805-1.741 1.805s-1.741-.808-1.741-1.805c0-.997.779-1.805 1.741-1.805s1.741.808 1.741 1.805zM17.407 18.465c0 .997-.779 1.805-1.741 1.805s-1.741-.808-1.741-1.805c0-.997.779-1.805 1.741-1.805s1.741.808 1.741 1.805zM9.573 28.39c0 .997-.779 1.805-1.741 1.805s-1.741-.808-1.741-1.805c0-.997.779-1.805 1.741-1.805s1.741.808 1.741 1.805zM13.345 25.984c0 .997-.779 1.805-1.741 1.805s-1.741-.808-1.741-1.805c0-.997.779-1.805 1.741-1.805s1.741.808 1.741 1.805zM17.696 23.277c0 .997-.779 1.805-1.741 1.805s-1.741-.808-1.741-1.805c0-.997.779-1.805 1.741-1.805s1.741.808 1.741 1.805zM21.758 20.871c0 .997-.779 1.805-1.741 1.805s-1.741-.808-1.741-1.805c0-.997.779-1.805 1.741-1.805s1.741.808 1.741 1.805zM14.504 29.895c0 .997-.779 1.805-1.741 1.805s-1.741-.808-1.741-1.805c0-.997.779-1.805 1.741-1.805s1.741.808 1.741 1.805zM18.276 27.488c0 .997-.779 1.805-1.741 1.805s-1.741-.808-1.741-1.805c0-.997.779-1.805 1.741-1.805s1.741.808 1.741 1.805zM22.629 24.781c0 .997-.779 1.805-1.741 1.805s-1.741-.808-1.741-1.805c0-.997.779-1.805 1.741-1.805s1.741.808 1.741 1.805zM26.689 22.375c0 .997-.779 1.805-1.741 1.805s-1.741-.808-1.741-1.805c0-.997.779-1.805 1.741-1.805s1.741.808 1.741 1.805z"/><path fill="#f8d24e" style="fill:var(--color1,#f8d24e)" d="M20.888 30.196c0 .997-.779 1.805-1.741 1.805s-1.741-.808-1.741-1.805c0-.997.779-1.805 1.741-1.805s1.741.808 1.741 1.805zM24.659 27.789c0 .997-.779 1.805-1.741 1.805s-1.741-.808-1.741-1.805c0-.997.779-1.805 1.741-1.805s1.741.808 1.741 1.805zM29.011 25.082c0 .997-.779 1.805-1.741 1.805s-1.741-.808-1.741-1.805c0-.997.779-1.805 1.741-1.805s1.741.808 1.741 1.805zM33.072 22.676c0 .997-.779 1.805-1.741 1.805s-1.741-.808-1.741-1.805c0-.997.779-1.805 1.741-1.805s1.741.808 1.741 1.805zM28.431 30.195c0 .997-.779 1.805-1.741 1.805s-1.741-.808-1.741-1.805c0-.997.779-1.805 1.741-1.805s1.741.808 1.741 1.805zM32.202 27.789c0 .997-.779 1.805-1.741 1.805s-1.741-.808-1.741-1.805c0-.997.779-1.805 1.741-1.805s1.741.808 1.741 1.805zM36.554 25.082c0 .997-.779 1.805-1.741 1.805s-1.741-.808-1.741-1.805c0-.997.779-1.805 1.741-1.805s1.741.808 1.741 1.805zM40.616 22.676c0 .997-.779 1.805-1.741 1.805s-1.741-.808-1.741-1.805c0-.997.779-1.805 1.741-1.805s1.741.808 1.741 1.805z"/><path fill="#f8d24e" style="fill:var(--color1,#f8d24e)" d="M34.812 29.895c0 .997-.779 1.805-1.741 1.805s-1.741-.808-1.741-1.805c0-.997.779-1.805 1.741-1.805s1.741.808 1.741 1.805zM38.583 27.488c0 .997-.779 1.805-1.741 1.805s-1.741-.808-1.741-1.805c0-.997.779-1.805 1.741-1.805s1.741.808 1.741 1.805zM42.936 24.781c0 .997-.779 1.805-1.741 1.805s-1.741-.808-1.741-1.805c0-.997.779-1.805 1.741-1.805s1.741.808 1.741 1.805zM46.996 22.375c0 .997-.779 1.805-1.741 1.805s-1.741-.808-1.741-1.805c0-.997.779-1.805 1.741-1.805s1.741.808 1.741 1.805zM42.064 29.594c0 .997-.779 1.805-1.741 1.805s-1.741-.808-1.741-1.805c0-.997.779-1.805 1.741-1.805s1.741.808 1.741 1.805zM45.836 27.187c0 .997-.779 1.805-1.741 1.805s-1.741-.808-1.741-1.805c0-.997.779-1.805 1.741-1.805s1.741.808 1.741 1.805zM50.188 24.481c0 .997-.779 1.805-1.741 1.805s-1.741-.808-1.741-1.805c0-.997.779-1.805 1.741-1.805s1.741.808 1.741 1.805zM54.249 22.074c0 .997-.779 1.805-1.741 1.805s-1.741-.808-1.741-1.805c0-.997.779-1.805 1.741-1.805s1.741.808 1.741 1.805z"/><path fill="#f8d24e" style="fill:var(--color1,#f8d24e)" d="M48.737 21.773c0 .997-.779 1.805-1.741 1.805s-1.741-.808-1.741-1.805c0-.997.779-1.805 1.741-1.805s1.741.808 1.741 1.805zM52.508 19.367c0 .997-.779 1.805-1.741 1.805s-1.741-.808-1.741-1.805c0-.997.779-1.805 1.741-1.805s1.741.808 1.741 1.805zM56.86 16.66c0 .997-.779 1.805-1.741 1.805s-1.741-.808-1.741-1.805c0-.997.779-1.805 1.741-1.805s1.741.808 1.741 1.805zM60.921 14.254c0 .997-.779 1.805-1.741 1.805s-1.741-.808-1.741-1.805c0-.997.779-1.805 1.741-1.805s1.741.808 1.741 1.805z"/></symbol><symbol id="icon-kropki_desktop" viewBox="0 0 1200 384" fill="none" xmlns="http://www.w3.org/2000/svg"><ellipse cx="447.193" cy="32.755" rx="5.858" ry="6.244" fill="#F8D24E"/><ellipse cx="459.886" cy="24.429" rx="5.858" ry="6.244" fill="#F8D24E"/><ellipse cx="474.532" cy="15.063" rx="5.858" ry="6.244" fill="#F8D24E"/><ellipse cx="488.202" cy="6.738" rx="5.858" ry="6.244" fill="#F8D24E"/><ellipse cx="428.641" cy="54.608" rx="5.858" ry="6.244" fill="#F8D24E"/><ellipse cx="441.335" cy="46.283" rx="5.858" ry="6.244" fill="#F8D24E"/><ellipse cx="455.98" cy="36.917" rx="5.858" ry="6.244" fill="#F8D24E"/><ellipse cx="469.65" cy="28.592" rx="5.858" ry="6.244" fill="#F8D24E"/><ellipse cx="400.325" cy="55.649" rx="5.858" ry="6.244" fill="#F8D24E"/><ellipse cx="413.019" cy="47.324" rx="5.858" ry="6.244" fill="#F8D24E"/><ellipse cx="427.665" cy="37.958" rx="5.858" ry="6.244" fill="#F8D24E"/><ellipse cx="441.335" cy="29.633" rx="5.858" ry="6.244" fill="#F8D24E"/><ellipse cx="384.703" cy="79.584" rx="5.858" ry="6.244" fill="#F8D24E"/><ellipse cx="397.396" cy="71.259" rx="5.858" ry="6.244" fill="#F8D24E"/><ellipse cx="412.042" cy="61.893" rx="5.858" ry="6.244" fill="#F8D24E"/><ellipse cx="425.712" cy="53.568" rx="5.858" ry="6.244" fill="#F8D24E"/><ellipse cx="372.986" cy="101.438" rx="5.858" ry="6.244" fill="#F8D24E"/><ellipse cx="385.679" cy="93.112" rx="5.858" ry="6.244" fill="#F8D24E"/><ellipse cx="400.325" cy="83.746" rx="5.858" ry="6.244" fill="#F8D24E"/><ellipse cx="413.995" cy="75.421" rx="5.858" ry="6.244" fill="#F8D24E"/><ellipse cx="5.858" cy="6.244" rx="5.858" ry="6.244" transform="matrix(1 .00156 -.00137 1 358.358 117.047)" fill="#F8D24E"/><ellipse cx="5.858" cy="6.244" rx="5.858" ry="6.244" transform="matrix(1 .00156 -.00137 1 371.062 108.742)" fill="#F8D24E"/><ellipse cx="5.858" cy="6.244" rx="5.858" ry="6.244" transform="matrix(1 .00156 -.00137 1 385.722 99.399)" fill="#F8D24E"/><ellipse cx="5.858" cy="6.244" rx="5.858" ry="6.244" transform="matrix(1 .00156 -.00137 1 399.403 91.095)" fill="#F8D24E"/><ellipse cx="5.858" cy="6.244" rx="5.858" ry="6.244" transform="matrix(1 .00156 -.00137 1 234.378 154.553)" fill="#F8D24E"/><ellipse cx="5.858" cy="6.244" rx="5.858" ry="6.244" transform="matrix(1 .00156 -.00137 1 248.06 146.249)" fill="#F8D24E"/><ellipse cx="5.858" cy="6.244" rx="5.858" ry="6.244" transform="matrix(1 .00156 -.00137 1 319.301 126.413)" fill="#F8D24E"/><ellipse cx="5.858" cy="6.244" rx="5.858" ry="6.244" transform="matrix(1 .00156 -.00137 1 332.006 118.108)" fill="#F8D24E"/><ellipse cx="5.858" cy="6.244" rx="5.858" ry="6.244" transform="matrix(1 .00156 -.00137 1 346.665 108.765)" fill="#F8D24E"/><ellipse cx="5.858" cy="6.244" rx="5.858" ry="6.244" transform="matrix(1 .00156 -.00137 1 360.346 100.46)" fill="#F8D24E"/><ellipse cx="241.171" cy="142.023" rx="5.858" ry="6.244" fill="#F8D24E"/><ellipse cx="254.841" cy="133.698" rx="5.858" ry="6.244" fill="#F8D24E"/><ellipse cx="273.393" cy="124.332" rx="5.858" ry="6.244" fill="#F8D24E"/><ellipse cx="286.086" cy="116.007" rx="5.858" ry="6.244" fill="#F8D24E"/><ellipse cx="300.732" cy="106.64" rx="5.858" ry="6.244" fill="#F8D24E"/><ellipse cx="314.402" cy="98.315" rx="5.858" ry="6.244" fill="#F8D24E"/><ellipse cx="298.779" cy="136.819" rx="5.858" ry="6.244" fill="#F8D24E"/><ellipse cx="311.473" cy="128.494" rx="5.858" ry="6.244" fill="#F8D24E"/><ellipse cx="326.119" cy="119.129" rx="5.858" ry="6.244" fill="#F8D24E"/><ellipse cx="339.789" cy="110.803" rx="5.858" ry="6.244" fill="#F8D24E"/><ellipse cx="300.732" cy="120.169" rx="5.858" ry="6.244" fill="#F8D24E"/><ellipse cx="313.426" cy="111.844" rx="5.858" ry="6.244" fill="#F8D24E"/><ellipse cx="328.072" cy="102.478" rx="5.858" ry="6.244" fill="#F8D24E"/><ellipse cx="341.741" cy="94.153" rx="5.858" ry="6.244" fill="#F8D24E"/><ellipse cx="247.03" cy="126.413" rx="5.858" ry="6.244" fill="#F8D24E"/><ellipse cx="259.723" cy="118.088" rx="5.858" ry="6.244" fill="#F8D24E"/><ellipse cx="274.37" cy="108.722" rx="5.858" ry="6.244" fill="#F8D24E"/><ellipse cx="288.039" cy="100.397" rx="5.858" ry="6.244" fill="#F8D24E"/><ellipse cx="5.858" cy="358.478" rx="5.858" ry="6.244" fill="#F8D24E"/><ellipse cx="18.551" cy="350.153" rx="5.858" ry="6.244" fill="#F8D24E"/><ellipse cx="33.198" cy="340.787" rx="5.858" ry="6.244" fill="#F8D24E"/><ellipse cx="46.867" cy="332.462" rx="5.858" ry="6.244" fill="#F8D24E"/><ellipse cx="80.065" cy="361.6" rx="5.858" ry="6.244" fill="#F8D24E"/><ellipse cx="92.758" cy="353.275" rx="5.858" ry="6.244" fill="#F8D24E"/><ellipse cx="107.404" cy="343.909" rx="5.858" ry="6.244" fill="#F8D24E"/><ellipse cx="121.074" cy="335.584" rx="5.858" ry="6.244" fill="#F8D24E"/><ellipse cx="110.334" cy="357.438" rx="5.858" ry="6.244" fill="#F8D24E"/><ellipse cx="123.027" cy="349.112" rx="5.858" ry="6.244" fill="#F8D24E"/><ellipse cx="137.673" cy="339.746" rx="5.858" ry="6.244" fill="#F8D24E"/><ellipse cx="151.343" cy="331.421" rx="5.858" ry="6.244" fill="#F8D24E"/><ellipse cx="165.989" cy="318.933" rx="5.858" ry="6.244" fill="#F8D24E"/><ellipse cx="134.744" cy="326.218" rx="5.858" ry="6.244" fill="#F8D24E"/><ellipse cx="1024.25" cy="376.672" rx="5.858" ry="6.239" fill="#F8D24E"/><ellipse cx="1036.94" cy="368.353" rx="5.858" ry="6.239" fill="#F8D24E"/><ellipse cx="1051.59" cy="358.995" rx="5.858" ry="6.239" fill="#F8D24E"/><ellipse cx="1065.26" cy="350.677" rx="5.858" ry="6.239" fill="#F8D24E"/><ellipse cx="1057.44" cy="372.513" rx="5.858" ry="6.239" fill="#F8D24E"/><ellipse cx="1070.14" cy="364.194" rx="5.858" ry="6.239" fill="#F8D24E"/><ellipse cx="1084.78" cy="354.836" rx="5.858" ry="6.239" fill="#F8D24E"/><ellipse cx="1098.45" cy="346.518" rx="5.858" ry="6.239" fill="#F8D24E"/><ellipse cx="1085.76" cy="369.393" rx="5.858" ry="6.239" fill="#F8D24E"/><ellipse cx="1098.45" cy="361.075" rx="5.858" ry="6.239" fill="#F8D24E"/><ellipse cx="1113.1" cy="351.717" rx="5.858" ry="6.239" fill="#F8D24E"/><ellipse cx="1126.77" cy="343.398" rx="5.858" ry="6.239" fill="#F8D24E"/><ellipse cx="1113.1" cy="365.234" rx="5.858" ry="6.239" fill="#F8D24E"/><ellipse cx="1125.79" cy="356.916" rx="5.858" ry="6.239" fill="#F8D24E"/><ellipse cx="1140.44" cy="347.557" rx="5.858" ry="6.239" fill="#F8D24E"/><ellipse cx="1154.11" cy="339.239" rx="5.858" ry="6.239" fill="#F8D24E"/><ellipse cx="1121.89" cy="376.672" rx="5.858" ry="6.239" fill="#F8D24E"/><ellipse cx="1134.58" cy="368.353" rx="5.858" ry="6.239" fill="#F8D24E"/><ellipse cx="1152.16" cy="377.712" rx="5.858" ry="6.239" fill="#F8D24E"/><ellipse cx="1149.23" cy="358.995" rx="5.858" ry="6.239" fill="#F8D24E"/><ellipse cx="1166.8" cy="368.353" rx="5.858" ry="6.239" fill="#F8D24E"/><ellipse cx="1180.47" cy="377.712" rx="5.858" ry="6.239" fill="#F8D24E"/><ellipse cx="1162.9" cy="350.677" rx="5.858" ry="6.239" fill="#F8D24E"/><ellipse cx="1180.47" cy="360.035" rx="5.858" ry="6.239" fill="#F8D24E"/><ellipse cx="1194.14" cy="369.393" rx="5.858" ry="6.239" fill="#F8D24E"/><ellipse cx="964.687" cy="308.045" rx="5.858" ry="6.239" fill="#F8D24E"/><ellipse cx="977.38" cy="299.727" rx="5.858" ry="6.239" fill="#F8D24E"/><ellipse cx="992.026" cy="290.369" rx="5.858" ry="6.239" fill="#F8D24E"/><ellipse cx="1005.7" cy="282.05" rx="5.858" ry="6.239" fill="#F8D24E"/><ellipse cx="940.276" cy="307.005" rx="5.858" ry="6.239" fill="#F8D24E"/><ellipse cx="952.97" cy="298.687" rx="5.858" ry="6.239" fill="#F8D24E"/><ellipse cx="967.616" cy="289.329" rx="5.858" ry="6.239" fill="#F8D24E"/><ellipse cx="981.285" cy="281.01" rx="5.858" ry="6.239" fill="#F8D24E"/><ellipse cx="994.956" cy="376.672" rx="5.858" ry="6.239" fill="#F8D24E"/><ellipse cx="1007.65" cy="368.353" rx="5.858" ry="6.239" fill="#F8D24E"/><ellipse cx="1022.29" cy="358.995" rx="5.858" ry="6.239" fill="#F8D24E"/><ellipse cx="1035.96" cy="350.677" rx="5.858" ry="6.239" fill="#F8D24E"/><ellipse cx="979.333" cy="370.433" rx="5.858" ry="6.239" fill="#F8D24E"/><ellipse cx="992.026" cy="362.115" rx="5.858" ry="6.239" fill="#F8D24E"/><ellipse cx="1006.67" cy="352.756" rx="5.858" ry="6.239" fill="#F8D24E"/><ellipse cx="1020.34" cy="344.438" rx="5.858" ry="6.239" fill="#F8D24E"/><ellipse cx="985.191" cy="348.597" rx="5.858" ry="6.239" fill="#F8D24E"/><ellipse cx="997.885" cy="340.279" rx="5.858" ry="6.239" fill="#F8D24E"/><ellipse cx="1012.53" cy="330.921" rx="5.858" ry="6.239" fill="#F8D24E"/><ellipse cx="1026.2" cy="322.602" rx="5.858" ry="6.239" fill="#F8D24E"/><ellipse cx="5.867" cy="6.23" rx="5.867" ry="6.23" transform="matrix(.98693 -.16112 .14249 .9898 673.512 298.577)" fill="#F8D24E"/><ellipse cx="5.867" cy="6.23" rx="5.867" ry="6.23" transform="matrix(.98693 -.16112 .14249 .9898 684.875 288.307)" fill="#F8D24E"/><ellipse cx="5.867" cy="6.23" rx="5.867" ry="6.23" transform="matrix(.98693 -.16112 .14249 .9898 698.02 276.693)" fill="#F8D24E"/><ellipse cx="5.867" cy="6.23" rx="5.867" ry="6.23" transform="matrix(.98693 -.16112 .14249 .9898 710.348 266.265)" fill="#F8D24E"/><ellipse cx="985.191" cy="312.204" rx="5.858" ry="6.239" fill="#F8D24E"/><ellipse cx="997.885" cy="303.886" rx="5.858" ry="6.239" fill="#F8D24E"/><ellipse cx="1012.53" cy="294.528" rx="5.858" ry="6.239" fill="#F8D24E"/><ellipse cx="1026.2" cy="286.209" rx="5.858" ry="6.239" fill="#F8D24E"/><ellipse cx="982.262" cy="331.96" rx="5.858" ry="6.239" fill="#F8D24E"/><ellipse cx="994.956" cy="323.642" rx="5.858" ry="6.239" fill="#F8D24E"/><ellipse cx="1009.6" cy="314.284" rx="5.858" ry="6.239" fill="#F8D24E"/><ellipse cx="1023.27" cy="305.965" rx="5.858" ry="6.239" fill="#F8D24E"/><ellipse cx="920.749" cy="301.806" rx="5.858" ry="6.239" fill="#F8D24E"/><ellipse cx="933.442" cy="293.488" rx="5.858" ry="6.239" fill="#F8D24E"/><ellipse cx="948.088" cy="284.13" rx="5.858" ry="6.239" fill="#F8D24E"/><path d="M947.112 308.045c3.235 0 5.858-2.793 5.858-6.239 0-3.445-2.623-6.239-5.858-6.239-3.236 0-5.859 2.794-5.859 6.239 0 3.446 2.623 6.239 5.859 6.239Z" fill="#F8D24E"/><ellipse cx="52.726" cy="360.559" rx="5.858" ry="6.244" fill="#F8D24E"/><ellipse cx="65.419" cy="352.234" rx="5.858" ry="6.244" fill="#F8D24E"/><ellipse cx="80.065" cy="342.868" rx="5.858" ry="6.244" fill="#F8D24E"/><ellipse cx="93.735" cy="334.543" rx="5.858" ry="6.244" fill="#F8D24E"/><ellipse cx="28.316" cy="359.519" rx="5.858" ry="6.244" fill="#F8D24E"/><ellipse cx="41.009" cy="351.193" rx="5.858" ry="6.244" fill="#F8D24E"/><ellipse cx="55.655" cy="341.828" rx="5.858" ry="6.244" fill="#F8D24E"/><ellipse cx="69.324" cy="333.503" rx="5.858" ry="6.244" fill="#F8D24E"/><ellipse cx="447.193" cy="56.69" rx="5.858" ry="6.244" fill="#F8D24E"/><ellipse cx="459.886" cy="48.364" rx="5.858" ry="6.244" fill="#F8D24E"/><ellipse cx="474.532" cy="38.998" rx="5.858" ry="6.244" fill="#F8D24E"/><ellipse cx="488.202" cy="30.673" rx="5.858" ry="6.244" fill="#F8D24E"/><ellipse cx="445.24" cy="99.356" rx="5.858" ry="6.244" fill="#F8D24E"/><ellipse cx="457.933" cy="91.031" rx="5.858" ry="6.244" fill="#F8D24E"/><ellipse cx="472.58" cy="81.665" rx="5.858" ry="6.244" fill="#F8D24E"/><ellipse cx="486.249" cy="73.34" rx="5.858" ry="6.244" fill="#F8D24E"/><ellipse cx="448.169" cy="77.502" rx="5.858" ry="6.244" fill="#F8D24E"/><ellipse cx="460.862" cy="69.177" rx="5.858" ry="6.244" fill="#F8D24E"/><ellipse cx="475.509" cy="59.812" rx="5.858" ry="6.244" fill="#F8D24E"/><ellipse cx="489.178" cy="51.486" rx="5.858" ry="6.244" fill="#F8D24E"/><ellipse cx="446.216" cy="120.169" rx="5.858" ry="6.244" fill="#F8D24E"/><ellipse cx="458.91" cy="111.844" rx="5.858" ry="6.244" fill="#F8D24E"/><ellipse cx="473.556" cy="102.478" rx="5.858" ry="6.244" fill="#F8D24E"/><ellipse cx="487.225" cy="94.153" rx="5.858" ry="6.244" fill="#F8D24E"/><ellipse cx="452.075" cy="134.738" rx="5.858" ry="6.244" fill="#F8D24E"/><ellipse cx="464.768" cy="126.413" rx="5.858" ry="6.244" fill="#F8D24E"/><ellipse cx="479.414" cy="117.047" rx="5.858" ry="6.244" fill="#F8D24E"/><ellipse cx="493.084" cy="108.722" rx="5.858" ry="6.244" fill="#F8D24E"/><ellipse cx="464.768" cy="146.185" rx="5.858" ry="6.244" fill="#F8D24E"/><ellipse cx="477.461" cy="137.86" rx="5.858" ry="6.244" fill="#F8D24E"/><ellipse cx="492.107" cy="128.494" rx="5.858" ry="6.244" fill="#F8D24E"/><ellipse cx="505.777" cy="120.169" rx="5.858" ry="6.244" fill="#F8D24E"/><ellipse cx="481.367" cy="155.551" rx="5.858" ry="6.244" fill="#F8D24E"/><ellipse cx="494.06" cy="147.226" rx="5.858" ry="6.244" fill="#F8D24E"/><ellipse cx="508.706" cy="137.86" rx="5.858" ry="6.244" fill="#F8D24E"/><ellipse cx="522.376" cy="129.535" rx="5.858" ry="6.244" fill="#F8D24E"/><ellipse cx="500.895" cy="157.633" rx="5.858" ry="6.244" fill="#F8D24E"/><ellipse cx="513.588" cy="149.307" rx="5.858" ry="6.244" fill="#F8D24E"/><ellipse cx="528.234" cy="139.942" rx="5.858" ry="6.244" fill="#F8D24E"/><ellipse cx="541.904" cy="131.616" rx="5.858" ry="6.244" fill="#F8D24E"/><ellipse cx="520.423" cy="161.795" rx="5.858" ry="6.244" fill="#F8D24E"/><ellipse cx="533.117" cy="153.47" rx="5.858" ry="6.244" fill="#F8D24E"/><ellipse cx="547.763" cy="144.104" rx="5.858" ry="6.244" fill="#F8D24E"/><ellipse cx="561.433" cy="135.779" rx="5.858" ry="6.244" fill="#F8D24E"/><ellipse cx="515.542" cy="181.568" rx="5.858" ry="6.244" fill="#F8D24E"/><ellipse cx="528.234" cy="173.242" rx="5.858" ry="6.244" fill="#F8D24E"/><ellipse cx="542.88" cy="163.876" rx="5.858" ry="6.244" fill="#F8D24E"/><ellipse cx="556.55" cy="155.551" rx="5.858" ry="6.244" fill="#F8D24E"/><ellipse cx="513.588" cy="200.299" rx="5.858" ry="6.244" fill="#F8D24E"/><ellipse cx="526.282" cy="191.974" rx="5.858" ry="6.244" fill="#F8D24E"/><ellipse cx="540.928" cy="182.608" rx="5.858" ry="6.244" fill="#F8D24E"/><ellipse cx="554.597" cy="174.283" rx="5.858" ry="6.244" fill="#F8D24E"/><ellipse cx="506.753" cy="224.234" rx="5.858" ry="6.244" fill="#F8D24E"/><ellipse cx="519.447" cy="215.909" rx="5.858" ry="6.244" fill="#F8D24E"/><ellipse cx="534.093" cy="206.543" rx="5.858" ry="6.244" fill="#F8D24E"/><ellipse cx="547.763" cy="198.218" rx="5.858" ry="6.244" fill="#F8D24E"/><ellipse cx="503.824" cy="245.047" rx="5.858" ry="6.244" fill="#F8D24E"/><ellipse cx="516.517" cy="236.722" rx="5.858" ry="6.244" fill="#F8D24E"/><ellipse cx="531.163" cy="227.356" rx="5.858" ry="6.244" fill="#F8D24E"/><ellipse cx="544.833" cy="219.031" rx="5.858" ry="6.244" fill="#F8D24E"/><ellipse cx="499.918" cy="266.901" rx="5.858" ry="6.244" fill="#F8D24E"/><ellipse cx="512.612" cy="258.576" rx="5.858" ry="6.244" fill="#F8D24E"/><ellipse cx="527.258" cy="249.21" rx="5.858" ry="6.244" fill="#F8D24E"/><ellipse cx="540.928" cy="240.885" rx="5.858" ry="6.244" fill="#F8D24E"/><ellipse cx="497.965" cy="284.592" rx="5.858" ry="6.244" fill="#F8D24E"/><ellipse cx="510.659" cy="276.267" rx="5.858" ry="6.244" fill="#F8D24E"/><ellipse cx="525.305" cy="266.901" rx="5.858" ry="6.244" fill="#F8D24E"/><ellipse cx="538.975" cy="258.576" rx="5.858" ry="6.244" fill="#F8D24E"/><ellipse cx="496.013" cy="303.324" rx="5.858" ry="6.244" fill="#F8D24E"/><ellipse cx="508.707" cy="294.998" rx="5.858" ry="6.244" fill="#F8D24E"/><ellipse cx="523.353" cy="285.633" rx="5.858" ry="6.244" fill="#F8D24E"/><ellipse cx="537.022" cy="277.307" rx="5.858" ry="6.244" fill="#F8D24E"/><ellipse cx="501.871" cy="318.933" rx="5.858" ry="6.244" fill="#F8D24E"/><ellipse cx="514.564" cy="310.608" rx="5.858" ry="6.244" fill="#F8D24E"/><ellipse cx="529.21" cy="301.242" rx="5.858" ry="6.244" fill="#F8D24E"/><ellipse cx="542.88" cy="292.917" rx="5.858" ry="6.244" fill="#F8D24E"/><ellipse cx="516.518" cy="327.259" rx="5.858" ry="6.244" fill="#F8D24E"/><ellipse cx="529.211" cy="318.933" rx="5.858" ry="6.244" fill="#F8D24E"/><ellipse cx="543.857" cy="309.568" rx="5.858" ry="6.244" fill="#F8D24E"/><ellipse cx="557.526" cy="301.242" rx="5.858" ry="6.244" fill="#F8D24E"/><ellipse cx="533.117" cy="332.462" rx="5.858" ry="6.244" fill="#F8D24E"/><ellipse cx="545.81" cy="324.137" rx="5.858" ry="6.244" fill="#F8D24E"/><ellipse cx="560.456" cy="314.771" rx="5.858" ry="6.244" fill="#F8D24E"/><ellipse cx="574.125" cy="306.446" rx="5.858" ry="6.244" fill="#F8D24E"/><ellipse cx="554.597" cy="333.503" rx="5.858" ry="6.244" fill="#F8D24E"/><ellipse cx="567.291" cy="325.177" rx="5.858" ry="6.244" fill="#F8D24E"/><ellipse cx="581.937" cy="315.811" rx="5.858" ry="6.244" fill="#F8D24E"/><ellipse cx="595.606" cy="307.486" rx="5.858" ry="6.244" fill="#F8D24E"/><ellipse cx="579.984" cy="333.503" rx="5.858" ry="6.244" fill="#F8D24E"/><ellipse cx="592.677" cy="325.177" rx="5.858" ry="6.244" fill="#F8D24E"/><ellipse cx="607.323" cy="315.811" rx="5.858" ry="6.244" fill="#F8D24E"/><ellipse cx="620.993" cy="307.486" rx="5.858" ry="6.244" fill="#F8D24E"/><ellipse cx="601.464" cy="332.462" rx="5.858" ry="6.244" fill="#F8D24E"/><ellipse cx="614.157" cy="324.137" rx="5.858" ry="6.244" fill="#F8D24E"/><ellipse cx="628.804" cy="314.771" rx="5.858" ry="6.244" fill="#F8D24E"/><ellipse cx="642.473" cy="306.446" rx="5.858" ry="6.244" fill="#F8D24E"/><ellipse cx="625.875" cy="331.421" rx="5.858" ry="6.244" fill="#F8D24E"/><ellipse cx="638.568" cy="323.096" rx="5.858" ry="6.244" fill="#F8D24E"/><ellipse cx="653.213" cy="313.73" rx="5.858" ry="6.244" fill="#F8D24E"/><ellipse cx="666.883" cy="305.405" rx="5.858" ry="6.244" fill="#F8D24E"/><ellipse cx="648.332" cy="304.364" rx="5.858" ry="6.244" fill="#F8D24E"/><ellipse cx="661.025" cy="296.039" rx="5.858" ry="6.244" fill="#F8D24E"/><ellipse cx="675.671" cy="286.673" rx="5.858" ry="6.244" fill="#F8D24E"/><ellipse cx="689.341" cy="278.348" rx="5.858" ry="6.244" fill="#F8D24E"/></symbol></defs></svg>