<svg width="31" height="13" viewBox="0 0 31 13" fill="none" xmlns="http://www.w3.org/2000/svg">
<path d="M8.45846 8.21451L7.86439 9.12609L7.87633 9.13366L8.45846 8.21451ZM14.8546 8.52263L15.9423 8.49846L15.9143 7.23926L14.6726 7.44998L14.8546 8.52263ZM14.929 11.8694L15.2059 12.9216L16.0358 12.7032L16.0167 11.8453L14.929 11.8694ZM6.53537 12.0288L6.7795 10.9686L6.77286 10.9671L6.53537 12.0288ZM2.39169 10.1801L3.09559 9.3505L3.09393 9.34911L2.39169 10.1801ZM0.893586 6.78016L1.98157 6.7856V6.78016H0.893586ZM1.4142 4.4002L0.437901 3.92005L0.437205 3.92147L1.4142 4.4002ZM4.7504 1.55274L5.13639 2.56996L5.14035 2.56844L4.7504 1.55274ZM15.439 1.2765L16.5237 1.36098L16.5952 0.44225L15.7008 0.220491L15.439 1.2765ZM15.1733 4.68707L14.9707 5.75602L16.1638 5.98215L16.258 4.77155L15.1733 4.68707ZM12.2728 3.29097C10.64 3.29097 9.26752 3.46538 8.26488 3.90628C7.75114 4.13218 7.28366 4.45009 6.94332 4.89907C6.59234 5.36207 6.42487 5.90171 6.42487 6.47204H8.60083C8.60083 6.34466 8.63169 6.27382 8.67737 6.21355C8.73369 6.13926 8.8612 6.0211 9.14078 5.89816C9.72478 5.64136 10.7323 5.46693 12.2728 5.46693V3.29097ZM6.42487 6.47204C6.42487 7.59163 6.92671 8.51491 7.86444 9.12602L9.05247 7.303C8.72939 7.09245 8.60083 6.85409 8.60083 6.47204H6.42487ZM7.87633 9.13366C8.76532 9.69668 9.93753 9.9081 11.2528 9.9081V7.73214C10.1172 7.73214 9.42657 7.53982 9.04058 7.29536L7.87633 9.13366ZM11.2528 9.9081C12.5439 9.9081 13.8054 9.8042 15.0366 9.59527L14.6726 7.44998C13.5663 7.63771 12.4267 7.73214 11.2528 7.73214V9.9081ZM13.7669 8.5468L13.8413 11.8936L16.0167 11.8453L15.9423 8.49846L13.7669 8.5468ZM14.6521 10.8173C13.4082 11.1446 12.0363 11.3127 10.5303 11.3127V13.4887C12.1976 13.4887 13.7581 13.3026 15.2059 12.9216L14.6521 10.8173ZM10.5303 11.3127C8.99347 11.3127 7.74973 11.192 6.7795 10.9686L6.29123 13.0891C7.4743 13.3615 8.89385 13.4887 10.5303 13.4887V11.3127ZM6.77286 10.9671C5.7344 10.7348 4.98438 10.488 4.4841 10.2437L3.52921 12.199C4.24725 12.5496 5.18304 12.8412 6.29787 13.0906L6.77286 10.9671ZM4.4841 10.2437C3.94782 9.9818 3.48721 9.68279 3.09559 9.3505L1.68779 11.0097C2.23115 11.4707 2.84718 11.8659 3.52921 12.199L4.4841 10.2437ZM3.09393 9.34911C2.35467 8.72437 1.97594 7.90788 1.98155 6.7856L-0.194382 6.77472C-0.202937 8.48572 0.417071 9.93585 1.68944 11.0111L3.09393 9.34911ZM1.98157 6.78016C1.98157 6.04875 2.12508 5.42202 2.3912 4.87893L0.437205 3.92147C0.00916791 4.79501 -0.194396 5.75492 -0.194396 6.78016H1.98157ZM2.3905 4.88034C2.88543 3.87398 3.75941 3.09247 5.13639 2.56995L4.3644 0.535537C2.5681 1.21717 1.21795 2.33395 0.437902 3.92005L2.3905 4.88034ZM5.14035 2.56844C6.58793 2.01268 8.20331 1.72699 9.99906 1.72699V-0.448971C7.96987 -0.448971 6.08614 -0.125498 4.36044 0.537048L5.14035 2.56844ZM9.99906 1.72699C11.8305 1.72699 13.5554 1.93043 15.1771 2.33251L15.7008 0.220491C13.8942 -0.227413 11.9925 -0.448971 9.99906 -0.448971V1.72699ZM14.3543 1.19202L14.0886 4.60259L16.258 4.77155L16.5237 1.36098L14.3543 1.19202ZM15.376 3.61812C14.244 3.40356 13.2073 3.29097 12.2728 3.29097V5.46693C13.0382 5.46693 13.9352 5.55975 14.9707 5.75602L15.376 3.61812ZM25.9915 5.35643L25.9855 6.4444L27.0912 6.45052L27.0795 5.34486L25.9915 5.35643ZM25.524 3.94333L24.7837 4.74065L24.7931 4.74922L25.524 3.94333ZM22.8147 4.04958L23.5682 4.83448L23.5762 4.82663L22.8147 4.04958ZM22.156 5.33518L21.0824 5.1587L20.8757 6.41609L22.1499 6.42315L22.156 5.33518ZM30.1565 11.1363L30.8137 12.0034L31.2048 11.7069L31.2414 11.2175L30.1565 11.1363ZM27.8084 12.0076L27.5745 10.945L27.5681 10.9464L27.8084 12.0076ZM19.6485 11.7101L19.2775 12.7329L19.2864 12.736L19.6485 11.7101ZM17.7892 10.722L17.1139 11.575L17.1204 11.5801L17.127 11.5852L17.7892 10.722ZM16.5461 9.16012L15.5708 9.64239L15.573 9.64668L16.5461 9.16012ZM17.821 2.5621L18.5446 3.37466L18.5451 3.37417L17.821 2.5621ZM27.7659 1.38275L28.201 0.385518L28.1908 0.381172L27.7659 1.38275ZM30.2627 3.67771L29.2842 4.15338L29.2872 4.15945L30.2627 3.67771ZM30.6877 5.57955L31.7728 5.65847L31.7757 5.61906V5.57955H30.6877ZM30.5602 7.33265L30.5548 8.42062L31.5716 8.42563L31.6453 7.41157L30.5602 7.33265ZM21.9435 7.29015L21.9488 6.20218L20.5295 6.19518L20.8915 7.5676L21.9435 7.29015ZM23.176 8.8095L22.6406 9.75666L22.645 9.75912L23.176 8.8095ZM29.7846 8.43763V7.34965H29.5672L29.3665 7.4332L29.7846 8.43763ZM30.3583 8.43763L31.4433 8.51879L31.5307 7.34965H30.3583V8.43763ZM27.0795 5.34486C27.0711 4.55786 26.8902 3.71356 26.255 3.13744L24.7931 4.74922C24.7803 4.7376 24.8053 4.75145 24.8364 4.84551C24.8694 4.9451 24.9009 5.11151 24.9036 5.368L27.0795 5.34486ZM26.2644 3.14606C25.6934 2.61586 24.9443 2.44098 24.2066 2.44098V4.61694C24.6305 4.61694 24.7597 4.71831 24.7837 4.7406L26.2644 3.14606ZM24.2066 2.44098C23.3963 2.44098 22.6428 2.69475 22.0532 3.27253L23.5762 4.82663C23.695 4.71025 23.8693 4.61694 24.2066 4.61694V2.44098ZM22.0613 3.26472C21.5257 3.77888 21.2028 4.4262 21.0824 5.1587L23.2295 5.51166C23.2791 5.21001 23.3954 5.00026 23.5682 4.83443L22.0613 3.26472ZM22.1499 6.42315L25.9855 6.4444L25.9976 4.26847L22.162 4.24722L22.1499 6.42315ZM29.4992 10.2693C29.2607 10.4501 28.679 10.7019 27.5745 10.945L28.0423 13.0701C29.1902 12.8174 30.1739 12.4884 30.8137 12.0034L29.4992 10.2693ZM27.5681 10.9464C26.514 11.1851 25.5003 11.3021 24.5253 11.3021V13.478C25.6753 13.478 26.8503 13.34 28.0486 13.0687L27.5681 10.9464ZM24.5253 11.3021C23.5001 11.3021 22.6556 11.2537 21.9824 11.1631L21.6921 13.3196C22.4921 13.4273 23.4397 13.478 24.5253 13.478V11.3021ZM21.9824 11.1631C21.3219 11.0741 20.6649 10.9151 20.0106 10.6841L19.2864 12.736C20.0771 13.0151 20.8793 13.2102 21.6921 13.3196L21.9824 11.1631ZM20.0195 10.6873C19.3834 10.4566 18.8659 10.1767 18.4514 9.85873L17.127 11.5852C17.7466 12.0605 18.4686 12.4394 19.2775 12.7328L20.0195 10.6873ZM18.4645 9.86894C18.091 9.57323 17.7736 9.18237 17.5192 8.67356L15.573 9.64668C15.956 10.4128 16.4674 11.0632 17.1139 11.575L18.4645 9.86894ZM17.5213 8.67785C17.2924 8.215 17.1559 7.6192 17.1559 6.85453H14.98C14.98 7.87483 15.1622 8.81609 15.5708 9.64239L17.5213 8.67785ZM17.1559 6.85453C17.1559 6.08911 17.2939 5.41319 17.5548 4.81207L15.5586 3.94583C15.1679 4.84635 14.98 5.82082 14.98 6.85453H17.1559ZM17.5548 4.81207C17.829 4.18004 18.165 3.7126 18.5446 3.37466L17.0975 1.74955C16.4429 2.33242 15.936 3.07621 15.5586 3.94583L17.5548 4.81207ZM18.5451 3.37417C19.7144 2.3316 21.4982 1.72699 24.0684 1.72699V-0.448971C21.1847 -0.448971 18.8035 0.228487 17.097 1.75004L18.5451 3.37417ZM24.0684 1.72699C25.2218 1.72699 26.3095 1.94674 27.341 2.38432L28.1908 0.381172C26.8848 -0.172889 25.5075 -0.448971 24.0684 -0.448971V1.72699ZM27.3307 2.37993C28.2935 2.80005 28.9158 3.39552 29.2842 4.15337L31.2412 3.20205C30.618 1.91994 29.5757 0.985425 28.201 0.38557L27.3307 2.37993ZM29.2872 4.15945C29.4904 4.57095 29.5997 5.03805 29.5997 5.57955H31.7757C31.7757 4.73275 31.6017 3.93195 31.2382 3.19597L29.2872 4.15945ZM29.6026 5.50063L29.4751 7.25373L31.6453 7.41157L31.7728 5.65847L29.6026 5.50063ZM30.5656 6.24468L21.9488 6.20218L21.9381 8.37812L30.5548 8.42062L30.5656 6.24468ZM20.8915 7.5676C21.1458 8.53205 21.7679 9.26338 22.6406 9.75665L23.7113 7.86234C23.2807 7.61896 23.0811 7.33739 22.9955 7.0127L20.8915 7.5676ZM22.645 9.75912C23.5274 10.2525 24.6309 10.45 25.864 10.45V8.27401C24.8306 8.27401 24.142 8.10313 23.7069 7.85988L22.645 9.75912ZM25.864 10.45C27.1873 10.45 28.6407 10.0923 30.2027 9.44206L29.3665 7.4332C27.9677 8.01546 26.8074 8.27401 25.864 8.27401V10.45ZM29.7846 9.52561H30.3583V7.34965H29.7846V9.52561ZM29.2734 8.35647L29.0715 11.0552L31.2414 11.2175L31.4433 8.51879L29.2734 8.35647Z" fill="#F8D24E"/>
</svg>
